<svg width="573" height="181" viewBox="0 0 573 181" fill="none" xmlns="http://www.w3.org/2000/svg">
<rect width="573" height="181" fill="#161616"/>
<path d="M56.1 80.88C56.1 83.04 57 84.69 58.8 85.83C60.66 86.97 64.02 87.72 68.88 88.08C74.1 88.5 78.06 89.76 80.76 91.86C83.52 93.9 84.9 96.9 84.9 100.86V101.4C84.9 103.56 84.45 105.51 83.55 107.25C82.71 108.93 81.51 110.37 79.95 111.57C78.45 112.77 76.59 113.67 74.37 114.27C72.21 114.93 69.84 115.26 67.26 115.26C63.78 115.26 60.78 114.81 58.26 113.91C55.8 112.95 53.73 111.72 52.05 110.22C50.43 108.66 49.2 106.92 48.36 105C47.52 103.02 47.04 101.04 46.92 99.06L53.58 97.44C53.88 100.86 55.2 103.62 57.54 105.72C59.88 107.76 63 108.78 66.9 108.78C70.2 108.78 72.84 108.15 74.82 106.89C76.86 105.57 77.88 103.74 77.88 101.4C77.88 98.88 76.89 97.08 74.91 96C72.93 94.92 69.72 94.23 65.28 93.93C60.12 93.57 56.16 92.37 53.4 90.33C50.64 88.29 49.26 85.32 49.26 81.42V80.88C49.26 78.78 49.71 76.95 50.61 75.39C51.51 73.77 52.71 72.42 54.21 71.34C55.77 70.26 57.51 69.45 59.43 68.91C61.35 68.37 63.36 68.1 65.46 68.1C68.4 68.1 70.98 68.52 73.2 69.36C75.42 70.14 77.28 71.19 78.78 72.51C80.28 73.77 81.42 75.24 82.2 76.92C83.04 78.6 83.58 80.28 83.82 81.96L77.16 83.58C76.86 80.7 75.69 78.45 73.65 76.83C71.67 75.21 69.06 74.4 65.82 74.4C64.56 74.4 63.33 74.55 62.13 74.85C60.99 75.09 59.97 75.48 59.07 76.02C58.17 76.56 57.45 77.25 56.91 78.09C56.37 78.87 56.1 79.8 56.1 80.88ZM133.797 69.36H140.817V114H133.797V105.9H132.717C131.277 108.78 129.387 111.06 127.047 112.74C124.707 114.42 121.737 115.26 118.137 115.26C115.677 115.26 113.397 114.84 111.297 114C109.257 113.22 107.487 112.02 105.987 110.4C104.547 108.78 103.407 106.77 102.567 104.37C101.787 101.97 101.397 99.18 101.397 96V69.36H108.417V95.1C108.417 99.78 109.377 103.2 111.297 105.36C113.217 107.52 116.157 108.6 120.117 108.6C124.377 108.6 127.707 107.16 130.107 104.28C132.567 101.34 133.797 97.44 133.797 92.58V69.36ZM162.445 132H155.425V69.36H162.445V76.38H163.525C165.085 73.68 167.245 71.64 170.005 70.26C172.765 68.82 175.765 68.1 179.005 68.1C181.765 68.1 184.375 68.61 186.835 69.63C189.295 70.65 191.455 72.12 193.315 74.04C195.235 75.96 196.735 78.33 197.815 81.15C198.955 83.97 199.525 87.18 199.525 90.78V92.58C199.525 96.24 198.985 99.48 197.905 102.3C196.825 105.12 195.325 107.49 193.405 109.41C191.545 111.33 189.355 112.8 186.835 113.82C184.315 114.78 181.645 115.26 178.825 115.26C177.385 115.26 175.915 115.08 174.415 114.72C172.915 114.42 171.475 113.94 170.095 113.28C168.775 112.56 167.545 111.72 166.405 110.76C165.265 109.74 164.305 108.54 163.525 107.16H162.445V132ZM177.385 108.6C179.545 108.6 181.525 108.24 183.325 107.52C185.125 106.74 186.685 105.66 188.005 104.28C189.385 102.9 190.435 101.22 191.155 99.24C191.935 97.26 192.325 95.04 192.325 92.58V90.78C192.325 88.38 191.935 86.22 191.155 84.3C190.435 82.32 189.385 80.64 188.005 79.26C186.685 77.82 185.095 76.71 183.235 75.93C181.435 75.15 179.485 74.76 177.385 74.76C175.285 74.76 173.335 75.18 171.535 76.02C169.735 76.8 168.145 77.91 166.765 79.35C165.445 80.79 164.395 82.53 163.615 84.57C162.835 86.55 162.445 88.74 162.445 91.14V92.22C162.445 94.68 162.835 96.93 163.615 98.97C164.395 100.95 165.445 102.66 166.765 104.1C168.145 105.54 169.735 106.65 171.535 107.43C173.335 108.21 175.285 108.6 177.385 108.6ZM217.282 93.84C217.462 98.28 218.842 101.85 221.422 104.55C224.002 107.25 227.602 108.6 232.222 108.6C234.322 108.6 236.152 108.36 237.712 107.88C239.272 107.4 240.592 106.74 241.672 105.9C242.812 105.06 243.712 104.1 244.372 103.02C245.092 101.88 245.662 100.68 246.082 99.42L252.742 101.22C251.482 105.36 249.142 108.75 245.722 111.39C242.362 113.97 237.802 115.26 232.042 115.26C228.862 115.26 225.922 114.72 223.222 113.64C220.582 112.5 218.302 110.91 216.382 108.87C214.462 106.83 212.962 104.4 211.882 101.58C210.802 98.76 210.262 95.64 210.262 92.22V90.06C210.262 86.94 210.802 84.03 211.882 81.33C213.022 78.63 214.582 76.32 216.562 74.4C218.542 72.42 220.852 70.89 223.492 69.81C226.192 68.67 229.102 68.1 232.222 68.1C235.882 68.1 239.032 68.79 241.672 70.17C244.372 71.49 246.562 73.14 248.242 75.12C249.982 77.1 251.242 79.26 252.022 81.6C252.862 83.94 253.282 86.1 253.282 88.08V93.84H217.282ZM232.222 74.76C230.242 74.76 228.382 75.09 226.642 75.75C224.962 76.35 223.462 77.22 222.142 78.36C220.882 79.5 219.832 80.85 218.992 82.41C218.212 83.91 217.702 85.56 217.462 87.36H246.262C246.142 85.44 245.662 83.7 244.822 82.14C244.042 80.58 242.992 79.26 241.672 78.18C240.412 77.1 238.942 76.26 237.262 75.66C235.642 75.06 233.962 74.76 232.222 74.76ZM264.74 69.36H280.94V75.3H282.02C283.16 72.84 284.78 71.04 286.88 69.9C288.98 68.7 291.38 68.1 294.08 68.1C298.58 68.1 302.21 69.57 304.97 72.51C307.73 75.45 309.2 79.74 309.38 85.38L302 86.46C302 82.32 301.01 79.35 299.03 77.55C297.05 75.69 294.62 74.76 291.74 74.76C289.88 74.76 288.26 75.12 286.88 75.84C285.56 76.56 284.45 77.55 283.55 78.81C282.65 80.07 281.99 81.54 281.57 83.22C281.15 84.9 280.94 86.7 280.94 88.62V107.52H292.28V114H263.66V107.52H273.92V75.84H264.74V69.36ZM329.387 114H322.367V69.36H329.387V76.92H330.467C333.227 71.04 338.027 68.1 344.867 68.1C350.027 68.1 354.137 69.72 357.197 72.96C360.257 76.14 361.787 80.94 361.787 87.36V114H354.767V88.8C354.767 84.12 353.717 80.61 351.617 78.27C349.517 75.93 346.667 74.76 343.067 74.76C338.807 74.76 335.447 76.23 332.987 79.17C330.587 82.05 329.387 85.92 329.387 90.78V114ZM419.595 92.22C419.595 95.94 418.965 99.24 417.705 102.12C416.505 104.94 414.885 107.34 412.845 109.32C410.805 111.24 408.405 112.71 405.645 113.73C402.945 114.75 400.125 115.26 397.185 115.26C394.185 115.26 391.335 114.75 388.635 113.73C385.935 112.71 383.565 111.24 381.525 109.32C379.485 107.34 377.835 104.94 376.575 102.12C375.375 99.24 374.775 95.94 374.775 92.22V91.14C374.775 87.48 375.375 84.24 376.575 81.42C377.835 78.54 379.485 76.11 381.525 74.13C383.625 72.15 386.025 70.65 388.725 69.63C391.425 68.61 394.245 68.1 397.185 68.1C400.125 68.1 402.945 68.61 405.645 69.63C408.345 70.65 410.715 72.15 412.755 74.13C414.855 76.11 416.505 78.54 417.705 81.42C418.965 84.24 419.595 87.48 419.595 91.14V92.22ZM397.185 108.6C399.345 108.6 401.325 108.24 403.125 107.52C404.985 106.74 406.605 105.63 407.985 104.19C409.365 102.75 410.445 101.04 411.225 99.06C412.005 97.02 412.395 94.74 412.395 92.22V91.14C412.395 88.74 412.005 86.55 411.225 84.57C410.445 82.53 409.365 80.79 407.985 79.35C406.605 77.91 404.985 76.8 403.125 76.02C401.265 75.18 399.285 74.76 397.185 74.76C395.085 74.76 393.105 75.18 391.245 76.02C389.385 76.8 387.765 77.91 386.385 79.35C385.005 80.79 383.925 82.53 383.145 84.57C382.365 86.55 381.975 88.74 381.975 91.14V92.22C381.975 94.74 382.365 97.02 383.145 99.06C383.925 101.04 385.005 102.75 386.385 104.19C387.765 105.63 389.355 106.74 391.155 107.52C393.015 108.24 395.025 108.6 397.185 108.6ZM459.132 114H445.272L429.702 69.36H437.982L451.662 110.76H452.742L466.422 69.36H474.702L459.132 114ZM520.089 106.44H519.009C517.569 109.44 515.559 111.66 512.979 113.1C510.459 114.54 507.789 115.26 504.969 115.26C502.029 115.26 499.299 114.78 496.779 113.82C494.259 112.8 492.039 111.33 490.119 109.41C488.259 107.43 486.789 105.03 485.709 102.21C484.629 99.39 484.089 96.12 484.089 92.4V90.96C484.089 87.3 484.629 84.06 485.709 81.24C486.789 78.42 488.259 76.05 490.119 74.13C492.039 72.15 494.259 70.65 496.779 69.63C499.299 68.61 501.969 68.1 504.789 68.1C507.849 68.1 510.609 68.79 513.069 70.17C515.589 71.49 517.569 73.56 519.009 76.38H520.089V69.36H527.109V104.82C527.109 106.62 527.919 107.52 529.539 107.52H531.789V114H527.019C524.979 114 523.299 113.34 521.979 112.02C520.719 110.7 520.089 109.02 520.089 106.98V106.44ZM505.689 108.6C507.789 108.6 509.709 108.21 511.449 107.43C513.249 106.65 514.779 105.54 516.039 104.1C517.299 102.66 518.289 100.95 519.009 98.97C519.729 96.93 520.089 94.68 520.089 92.22V91.14C520.089 88.74 519.729 86.55 519.009 84.57C518.289 82.53 517.269 80.79 515.949 79.35C514.689 77.91 513.159 76.8 511.359 76.02C509.619 75.18 507.729 74.76 505.689 74.76C503.589 74.76 501.669 75.15 499.929 75.93C498.189 76.71 496.659 77.82 495.339 79.26C494.079 80.64 493.089 82.35 492.369 84.39C491.649 86.37 491.289 88.56 491.289 90.96V92.4C491.289 97.5 492.609 101.49 495.249 104.37C497.949 107.19 501.429 108.6 505.689 108.6Z" fill="white"/>
<ellipse cx="505.5" cy="92" rx="8.5" ry="10" fill="white"/>
<ellipse cx="397.5" cy="92" rx="8.5" ry="10" fill="white"/>
<ellipse cx="177.5" cy="92" rx="8.5" ry="10" fill="white"/>
</svg>
